<mxfile host="app.diagrams.net" agent="Mozilla/5.0 (Windows NT 10.0; Win64; x64) AppleWebKit/537.36 (KHTML, like Gecko) Chrome/140.0.0.0 Safari/537.36" version="28.2.4">
  <diagram name="PÃ¡gina-1" id="D4w3G-iNSaWP-pdBqi6N">
    <mxGraphModel dx="1042" dy="1703" grid="1" gridSize="10" guides="1" tooltips="1" connect="1" arrows="0" fold="1" page="1" pageScale="1" pageWidth="827" pageHeight="1169" math="0" shadow="0">
      <root>
        <mxCell id="0" />
        <mxCell id="1" parent="0" />
        <mxCell id="ZZnuchMII4n00w_LbvE1-19" style="edgeStyle=orthogonalEdgeStyle;rounded=0;orthogonalLoop=1;jettySize=auto;html=1;dashed=1;" edge="1" parent="1" source="ZZnuchMII4n00w_LbvE1-1" target="ZZnuchMII4n00w_LbvE1-5">
          <mxGeometry relative="1" as="geometry" />
        </mxCell>
        <mxCell id="ZZnuchMII4n00w_LbvE1-1" value="Or" style="swimlane;fontStyle=1;align=center;verticalAlign=top;childLayout=stackLayout;horizontal=1;startSize=26;horizontalStack=0;resizeParent=1;resizeParentMax=0;resizeLast=0;collapsible=1;marginBottom=0;whiteSpace=wrap;html=1;" vertex="1" parent="1">
          <mxGeometry x="290" y="280" width="160" height="34" as="geometry" />
        </mxCell>
        <mxCell id="ZZnuchMII4n00w_LbvE1-3" value="" style="line;strokeWidth=1;fillColor=none;align=left;verticalAlign=middle;spacingTop=-1;spacingLeft=3;spacingRight=3;rotatable=0;labelPosition=right;points=[];portConstraint=eastwest;strokeColor=inherit;" vertex="1" parent="ZZnuchMII4n00w_LbvE1-1">
          <mxGeometry y="26" width="160" height="8" as="geometry" />
        </mxCell>
        <mxCell id="ZZnuchMII4n00w_LbvE1-30" style="rounded=0;orthogonalLoop=1;jettySize=auto;html=1;" edge="1" parent="1" source="ZZnuchMII4n00w_LbvE1-5" target="ZZnuchMII4n00w_LbvE1-20">
          <mxGeometry relative="1" as="geometry" />
        </mxCell>
        <mxCell id="ZZnuchMII4n00w_LbvE1-32" value="N" style="edgeLabel;html=1;align=center;verticalAlign=middle;resizable=0;points=[];" vertex="1" connectable="0" parent="ZZnuchMII4n00w_LbvE1-30">
          <mxGeometry x="0.4099" y="-1" relative="1" as="geometry">
            <mxPoint as="offset" />
          </mxGeometry>
        </mxCell>
        <mxCell id="ZZnuchMII4n00w_LbvE1-33" value="N" style="edgeLabel;html=1;align=center;verticalAlign=middle;resizable=0;points=[];" vertex="1" connectable="0" parent="ZZnuchMII4n00w_LbvE1-30">
          <mxGeometry x="-0.637" y="3" relative="1" as="geometry">
            <mxPoint as="offset" />
          </mxGeometry>
        </mxCell>
        <mxCell id="ZZnuchMII4n00w_LbvE1-5" value="&amp;lt;&amp;lt;Interface&amp;gt;&amp;gt;&lt;br&gt;ILogicGate" style="swimlane;fontStyle=1;align=center;verticalAlign=top;childLayout=stackLayout;horizontal=1;startSize=40;horizontalStack=0;resizeParent=1;resizeParentMax=0;resizeLast=0;collapsible=1;marginBottom=0;whiteSpace=wrap;html=1;" vertex="1" parent="1">
          <mxGeometry x="290" width="160" height="200" as="geometry" />
        </mxCell>
        <mxCell id="ZZnuchMII4n00w_LbvE1-6" value="+ Inputs: List&amp;lt;Input&amp;gt;&lt;div&gt;+ Name: string&lt;/div&gt;&lt;div&gt;+ Output: bool&lt;/div&gt;" style="text;strokeColor=none;fillColor=none;align=left;verticalAlign=top;spacingLeft=4;spacingRight=4;overflow=hidden;rotatable=0;points=[[0,0.5],[1,0.5]];portConstraint=eastwest;whiteSpace=wrap;html=1;" vertex="1" parent="ZZnuchMII4n00w_LbvE1-5">
          <mxGeometry y="40" width="160" height="80" as="geometry" />
        </mxCell>
        <mxCell id="ZZnuchMII4n00w_LbvE1-7" value="" style="line;strokeWidth=1;fillColor=none;align=left;verticalAlign=middle;spacingTop=-1;spacingLeft=3;spacingRight=3;rotatable=0;labelPosition=right;points=[];portConstraint=eastwest;strokeColor=inherit;" vertex="1" parent="ZZnuchMII4n00w_LbvE1-5">
          <mxGeometry y="120" width="160" height="8" as="geometry" />
        </mxCell>
        <mxCell id="ZZnuchMII4n00w_LbvE1-8" value="+ AddInput(Input):&amp;nbsp;&lt;div&gt;+ RemoveInput(Input):&lt;/div&gt;&lt;div&gt;+ GetOutput(): bool&lt;/div&gt;" style="text;strokeColor=none;fillColor=none;align=left;verticalAlign=top;spacingLeft=4;spacingRight=4;overflow=hidden;rotatable=0;points=[[0,0.5],[1,0.5]];portConstraint=eastwest;whiteSpace=wrap;html=1;" vertex="1" parent="ZZnuchMII4n00w_LbvE1-5">
          <mxGeometry y="128" width="160" height="72" as="geometry" />
        </mxCell>
        <mxCell id="ZZnuchMII4n00w_LbvE1-18" style="rounded=0;orthogonalLoop=1;jettySize=auto;html=1;dashed=1;" edge="1" parent="1" source="ZZnuchMII4n00w_LbvE1-9" target="ZZnuchMII4n00w_LbvE1-5">
          <mxGeometry relative="1" as="geometry" />
        </mxCell>
        <mxCell id="ZZnuchMII4n00w_LbvE1-9" value="And" style="swimlane;fontStyle=1;align=center;verticalAlign=top;childLayout=stackLayout;horizontal=1;startSize=26;horizontalStack=0;resizeParent=1;resizeParentMax=0;resizeLast=0;collapsible=1;marginBottom=0;whiteSpace=wrap;html=1;" vertex="1" parent="1">
          <mxGeometry x="100" y="280" width="160" height="34" as="geometry" />
        </mxCell>
        <mxCell id="ZZnuchMII4n00w_LbvE1-11" value="" style="line;strokeWidth=1;fillColor=none;align=left;verticalAlign=middle;spacingTop=-1;spacingLeft=3;spacingRight=3;rotatable=0;labelPosition=right;points=[];portConstraint=eastwest;strokeColor=inherit;" vertex="1" parent="ZZnuchMII4n00w_LbvE1-9">
          <mxGeometry y="26" width="160" height="8" as="geometry" />
        </mxCell>
        <mxCell id="ZZnuchMII4n00w_LbvE1-17" style="rounded=0;orthogonalLoop=1;jettySize=auto;html=1;dashed=1;" edge="1" parent="1" source="ZZnuchMII4n00w_LbvE1-13" target="ZZnuchMII4n00w_LbvE1-5">
          <mxGeometry relative="1" as="geometry" />
        </mxCell>
        <mxCell id="ZZnuchMII4n00w_LbvE1-13" value="Not" style="swimlane;fontStyle=1;align=center;verticalAlign=top;childLayout=stackLayout;horizontal=1;startSize=26;horizontalStack=0;resizeParent=1;resizeParentMax=0;resizeLast=0;collapsible=1;marginBottom=0;whiteSpace=wrap;html=1;" vertex="1" parent="1">
          <mxGeometry x="480" y="280" width="160" height="34" as="geometry" />
        </mxCell>
        <mxCell id="ZZnuchMII4n00w_LbvE1-15" value="" style="line;strokeWidth=1;fillColor=none;align=left;verticalAlign=middle;spacingTop=-1;spacingLeft=3;spacingRight=3;rotatable=0;labelPosition=right;points=[];portConstraint=eastwest;strokeColor=inherit;" vertex="1" parent="ZZnuchMII4n00w_LbvE1-13">
          <mxGeometry y="26" width="160" height="8" as="geometry" />
        </mxCell>
        <mxCell id="ZZnuchMII4n00w_LbvE1-20" value="Input" style="swimlane;fontStyle=1;align=center;verticalAlign=top;childLayout=stackLayout;horizontal=1;startSize=26;horizontalStack=0;resizeParent=1;resizeParentMax=0;resizeLast=0;collapsible=1;marginBottom=0;whiteSpace=wrap;html=1;" vertex="1" parent="1">
          <mxGeometry x="414" y="-140" width="160" height="78" as="geometry" />
        </mxCell>
        <mxCell id="ZZnuchMII4n00w_LbvE1-21" value="+ Name: string&lt;div&gt;+ Value: bool&lt;/div&gt;" style="text;strokeColor=none;fillColor=none;align=left;verticalAlign=top;spacingLeft=4;spacingRight=4;overflow=hidden;rotatable=0;points=[[0,0.5],[1,0.5]];portConstraint=eastwest;whiteSpace=wrap;html=1;" vertex="1" parent="ZZnuchMII4n00w_LbvE1-20">
          <mxGeometry y="26" width="160" height="44" as="geometry" />
        </mxCell>
        <mxCell id="ZZnuchMII4n00w_LbvE1-22" value="" style="line;strokeWidth=1;fillColor=none;align=left;verticalAlign=middle;spacingTop=-1;spacingLeft=3;spacingRight=3;rotatable=0;labelPosition=right;points=[];portConstraint=eastwest;strokeColor=inherit;" vertex="1" parent="ZZnuchMII4n00w_LbvE1-20">
          <mxGeometry y="70" width="160" height="8" as="geometry" />
        </mxCell>
        <mxCell id="ZZnuchMII4n00w_LbvE1-29" style="rounded=0;orthogonalLoop=1;jettySize=auto;html=1;" edge="1" parent="1" source="ZZnuchMII4n00w_LbvE1-24" target="ZZnuchMII4n00w_LbvE1-20">
          <mxGeometry relative="1" as="geometry" />
        </mxCell>
        <mxCell id="ZZnuchMII4n00w_LbvE1-34" value="N" style="edgeLabel;html=1;align=center;verticalAlign=middle;resizable=0;points=[];" vertex="1" connectable="0" parent="ZZnuchMII4n00w_LbvE1-29">
          <mxGeometry x="0.5812" y="2" relative="1" as="geometry">
            <mxPoint y="-1" as="offset" />
          </mxGeometry>
        </mxCell>
        <mxCell id="ZZnuchMII4n00w_LbvE1-35" value="N" style="edgeLabel;html=1;align=center;verticalAlign=middle;resizable=0;points=[];" vertex="1" connectable="0" parent="ZZnuchMII4n00w_LbvE1-29">
          <mxGeometry x="-0.601" y="2" relative="1" as="geometry">
            <mxPoint as="offset" />
          </mxGeometry>
        </mxCell>
        <mxCell id="ZZnuchMII4n00w_LbvE1-24" value="&amp;lt;&amp;lt;Interface&amp;gt;&amp;gt;&lt;div&gt;ILogicCircuit&lt;/div&gt;" style="swimlane;fontStyle=1;align=center;verticalAlign=top;childLayout=stackLayout;horizontal=1;startSize=40;horizontalStack=0;resizeParent=1;resizeParentMax=0;resizeLast=0;collapsible=1;marginBottom=0;whiteSpace=wrap;html=1;" vertex="1" parent="1">
          <mxGeometry x="574" width="160" height="160" as="geometry" />
        </mxCell>
        <mxCell id="ZZnuchMII4n00w_LbvE1-25" value="+ Inputs: List&amp;lt;Input&amp;gt;&lt;div&gt;+ Output: bool&lt;/div&gt;" style="text;strokeColor=none;fillColor=none;align=left;verticalAlign=top;spacingLeft=4;spacingRight=4;overflow=hidden;rotatable=0;points=[[0,0.5],[1,0.5]];portConstraint=eastwest;whiteSpace=wrap;html=1;" vertex="1" parent="ZZnuchMII4n00w_LbvE1-24">
          <mxGeometry y="40" width="160" height="70" as="geometry" />
        </mxCell>
        <mxCell id="ZZnuchMII4n00w_LbvE1-26" value="" style="line;strokeWidth=1;fillColor=none;align=left;verticalAlign=middle;spacingTop=-1;spacingLeft=3;spacingRight=3;rotatable=0;labelPosition=right;points=[];portConstraint=eastwest;strokeColor=inherit;" vertex="1" parent="ZZnuchMII4n00w_LbvE1-24">
          <mxGeometry y="110" width="160" height="8" as="geometry" />
        </mxCell>
        <mxCell id="ZZnuchMII4n00w_LbvE1-27" value="+ LogicOutput(): bool" style="text;strokeColor=none;fillColor=none;align=left;verticalAlign=top;spacingLeft=4;spacingRight=4;overflow=hidden;rotatable=0;points=[[0,0.5],[1,0.5]];portConstraint=eastwest;whiteSpace=wrap;html=1;" vertex="1" parent="ZZnuchMII4n00w_LbvE1-24">
          <mxGeometry y="118" width="160" height="42" as="geometry" />
        </mxCell>
        <mxCell id="ZZnuchMII4n00w_LbvE1-28" style="edgeStyle=orthogonalEdgeStyle;rounded=0;orthogonalLoop=1;jettySize=auto;html=1;" edge="1" parent="1" source="ZZnuchMII4n00w_LbvE1-25" target="ZZnuchMII4n00w_LbvE1-5">
          <mxGeometry relative="1" as="geometry" />
        </mxCell>
        <mxCell id="ZZnuchMII4n00w_LbvE1-36" value="1" style="edgeLabel;html=1;align=center;verticalAlign=middle;resizable=0;points=[];" vertex="1" connectable="0" parent="ZZnuchMII4n00w_LbvE1-28">
          <mxGeometry x="-0.6188" relative="1" as="geometry">
            <mxPoint as="offset" />
          </mxGeometry>
        </mxCell>
        <mxCell id="ZZnuchMII4n00w_LbvE1-37" value="N" style="edgeLabel;html=1;align=center;verticalAlign=middle;resizable=0;points=[];" vertex="1" connectable="0" parent="ZZnuchMII4n00w_LbvE1-28">
          <mxGeometry x="0.6295" y="1" relative="1" as="geometry">
            <mxPoint as="offset" />
          </mxGeometry>
        </mxCell>
        <mxCell id="ZZnuchMII4n00w_LbvE1-38" value="GarageGate" style="swimlane;fontStyle=1;align=center;verticalAlign=top;childLayout=stackLayout;horizontal=1;startSize=26;horizontalStack=0;resizeParent=1;resizeParentMax=0;resizeLast=0;collapsible=1;marginBottom=0;whiteSpace=wrap;html=1;" vertex="1" parent="1">
          <mxGeometry x="813" y="63" width="160" height="34" as="geometry" />
        </mxCell>
        <mxCell id="ZZnuchMII4n00w_LbvE1-40" value="" style="line;strokeWidth=1;fillColor=none;align=left;verticalAlign=middle;spacingTop=-1;spacingLeft=3;spacingRight=3;rotatable=0;labelPosition=right;points=[];portConstraint=eastwest;strokeColor=inherit;" vertex="1" parent="ZZnuchMII4n00w_LbvE1-38">
          <mxGeometry y="26" width="160" height="8" as="geometry" />
        </mxCell>
        <mxCell id="ZZnuchMII4n00w_LbvE1-42" style="edgeStyle=orthogonalEdgeStyle;rounded=0;orthogonalLoop=1;jettySize=auto;html=1;exitX=0;exitY=0.5;exitDx=0;exitDy=0;" edge="1" parent="1" target="ZZnuchMII4n00w_LbvE1-24">
          <mxGeometry relative="1" as="geometry">
            <mxPoint x="813" y="80" as="sourcePoint" />
          </mxGeometry>
        </mxCell>
      </root>
    </mxGraphModel>
  </diagram>
</mxfile>
